<mxfile host="app.diagrams.net" modified="2024-04-13T13:33:17.469Z" agent="Mozilla/5.0 (X11; Ubuntu; Linux x86_64; rv:123.0) Gecko/20100101 Firefox/123.0" version="24.2.5" etag="3qxBOniJjAL35T7t2EnJ" type="github">
  <diagram name="Page-1" id="WgnJ4jkO-JSBMuIzMu45">
    <mxGraphModel>
      <root>
        <mxCell id="0" />
        <mxCell id="1" parent="0" />
      </root>
    </mxGraphModel>
  </diagram>
</mxfile>
